HIERARCHY
ROOT Hips
{
	OFFSET -0.001795 -0.223333 0.028219
	CHANNELS 6 Xposition Yposition Zposition Zrotation Yrotation Xrotation 
	JOINT LeftUpLeg
	{
		OFFSET 0.069520 -0.091406 -0.006815
		CHANNELS 3 Zrotation Yrotation Xrotation
		JOINT LeftLeg
		{
			OFFSET 0.034277 -0.375199 -0.004496
			CHANNELS 3 Zrotation Yrotation Xrotation
			JOINT LeftFoot
			{
				OFFSET -0.013596 -0.397961 -0.043693
				CHANNELS 3 Zrotation Yrotation Xrotation
				JOINT LeftToe
				{
					OFFSET 0.026358 -0.055791 0.119288
					CHANNELS 3 Zrotation Yrotation Xrotation
					End Site
					{
						OFFSET 0.000000 0.000000 0.000000
					}
				}
			}
		}
	}
	JOINT RightUpLeg
	{
		OFFSET -0.067670 -0.090522 -0.004320
		CHANNELS 3 Zrotation Yrotation Xrotation
		JOINT RightLeg
		{
			OFFSET -0.038290 -0.382569 -0.008850
			CHANNELS 3 Zrotation Yrotation Xrotation
			JOINT RightFoot
			{
				OFFSET 0.015774 -0.398415 -0.042312
				CHANNELS 3 Zrotation Yrotation Xrotation
				JOINT RightToe
				{
					OFFSET -0.025372 -0.048144 0.123348
					CHANNELS 3 Zrotation Yrotation Xrotation
					End Site
					{
						OFFSET 0.000000 0.000000 0.000000
					}
				}
			}
		}
	}
	JOINT Spine
	{
		OFFSET -0.002533 0.108963 -0.026696
		CHANNELS 3 Zrotation Yrotation Xrotation
		JOINT Spine1
		{
			OFFSET 0.005487 0.135180 0.001092
			CHANNELS 3 Zrotation Yrotation Xrotation
			JOINT Spine2
			{
				OFFSET 0.001457 0.052922 0.025425
				CHANNELS 3 Zrotation Yrotation Xrotation
				JOINT Neck
				{
					OFFSET -0.002778 0.213870 -0.042857
					CHANNELS 3 Zrotation Yrotation Xrotation
					JOINT Head
					{
						OFFSET 0.005152 0.064970 0.051349
						CHANNELS 3 Zrotation Yrotation Xrotation
						End Site
						{
							OFFSET 0.000000 0.000000 0.000000
						}
					}
				}
				JOINT LeftShoulder
				{
					OFFSET 0.078845 0.121749 -0.034090
					CHANNELS 3 Zrotation Yrotation Xrotation
					JOINT LeftArm
					{
						OFFSET 0.090977 0.030469 -0.008868
						CHANNELS 3 Zrotation Yrotation Xrotation
						JOINT LeftForeArm
						{
							OFFSET 0.259612 -0.012772 -0.027456
							CHANNELS 3 Zrotation Yrotation Xrotation
							JOINT LeftHand
							{
								OFFSET 0.249234 0.008986 -0.001171
								CHANNELS 3 Zrotation Yrotation Xrotation
								End Site
								{
									OFFSET 0.000000 0.000000 0.000000
								}
							}
						}
					}
				}
				JOINT RightShoulder
				{
					OFFSET -0.081759 0.118833 -0.038615
					CHANNELS 3 Zrotation Yrotation Xrotation
					JOINT RightArm
					{
						OFFSET -0.096012 0.032551 -0.009143
						CHANNELS 3 Zrotation Yrotation Xrotation
						JOINT RightForeArm
						{
							OFFSET -0.253742 -0.013329 -0.021401
							CHANNELS 3 Zrotation Yrotation Xrotation
							JOINT RightHand
							{
								OFFSET -0.255298 0.007772 -0.005559
								CHANNELS 3 Zrotation Yrotation Xrotation
								End Site
								{
									OFFSET 0.000000 0.000000 0.000000
								}
							}
						}
					}
				}
			}
		}
	}
}
MOTION
Frames: 14
Frame Time: 0.050000
0.007316 0.904855 -0.064077 0.276395 6.568965 7.263738 5.781676 -1.765795 -27.361897 -7.270043 0.959391 32.327830 5.100482 11.802326 3.642208 0.000000 0.000000 0.000000 -7.280051 0.694170 -28.122207 9.801167 -3.758223 33.165776 -4.366739 -11.522075 3.944707 0.000000 0.000000 0.000000 -1.079207 -0.393957 11.343765 4.679243 -0.773848 -17.023392 -1.869241 -3.113071 10.643910 5.629109 -5.732445 5.244578 0.000000 0.000000 0.000000 -3.297229 44.354081 -17.665922 -7.107263 1.887070 -0.837263 -102.914221 -62.148672 77.233991 0.000000 0.000000 0.000000 -8.188249 -42.254519 -11.642830 12.151293 -2.758035 -1.319360 118.263733 67.154591 99.818954 0.000000 0.000000 0.000000 
0.007802 0.907321 -0.060507 0.960368 7.735484 8.523900 4.898260 -2.066657 -27.693892 -5.878148 0.309951 30.653573 3.991611 9.291820 2.094867 0.000000 0.000000 0.000000 -8.229212 0.361782 -28.570547 11.425730 -4.437934 31.256908 -6.914863 -17.079320 6.515274 0.000000 0.000000 0.000000 -1.509759 -0.313890 10.641542 5.242920 -0.768020 -18.957420 -2.047276 -2.592537 11.952921 6.200128 -6.321513 5.040677 0.000000 0.000000 0.000000 -3.836657 50.343368 -20.657838 -7.086292 8.213926 -0.885970 -80.850202 -61.687381 55.855031 0.000000 0.000000 0.000000 -10.341683 -51.322149 -13.616317 12.801968 -10.469959 -1.679950 98.668873 61.684911 73.219115 0.000000 0.000000 0.000000 
0.008644 0.911058 -0.057924 1.400939 9.045361 9.288419 4.651074 -2.236981 -27.862819 -5.421666 0.031126 29.438495 3.311399 7.731429 1.418066 0.000000 0.000000 0.000000 -8.674334 0.146485 -27.738235 12.296659 -4.792444 29.540661 -8.190356 -19.672740 5.823516 0.000000 0.000000 0.000000 -0.838213 -0.397282 10.476562 4.315767 -0.287291 -22.164368 -2.628894 -3.542260 14.227708 5.017047 -4.814122 2.486807 0.000000 0.000000 0.000000 -5.154178 53.328403 -23.074434 -6.006058 10.774435 -0.684053 -64.138640 -63.513933 44.190483 0.000000 0.000000 0.000000 -9.931312 -56.540672 -15.786527 11.860489 -13.652087 -1.572768 89.487251 58.361758 60.899123 0.000000 0.000000 0.000000 
0.010303 0.911535 -0.057047 1.944414 8.574141 9.708602 4.343250 -2.178467 -26.992329 -5.874727 0.296556 27.628182 3.298366 7.150422 0.051011 0.000000 0.000000 0.000000 -9.269983 0.037673 -28.375210 12.921708 -4.907751 29.035216 -9.791956 -22.700187 7.933751 0.000000 0.000000 0.000000 -1.027651 -0.351049 10.165250 2.749895 0.167106 -24.046898 -1.390221 -2.414501 15.611573 4.210393 -3.834937 0.906051 0.000000 0.000000 0.000000 -4.498804 51.553897 -22.059626 -4.175273 11.494072 -0.305888 -51.559750 -64.997863 35.650771 0.000000 0.000000 0.000000 -9.864143 -57.965402 -16.615994 11.196707 -14.946346 -1.426277 86.120265 53.399109 53.163415 0.000000 0.000000 0.000000 
0.012873 0.911101 -0.057915 2.159190 7.809158 9.206387 4.848570 -1.970533 -26.355557 -6.915176 0.720113 28.173997 3.635788 7.913097 0.253914 0.000000 0.000000 0.000000 -9.086984 0.168328 -27.821773 12.384431 -4.654807 29.639516 -9.561326 -22.606025 5.655864 0.000000 0.000000 0.000000 -0.662149 -0.424154 10.830273 2.464364 0.215979 -24.190094 -1.739204 -0.775389 14.975504 3.652948 -3.275671 0.884060 0.000000 0.000000 0.000000 -2.370393 50.309120 -20.123861 -1.910468 10.200309 0.116362 -42.569600 -62.459281 27.575719 0.000000 0.000000 0.000000 -10.287504 -56.369474 -15.845933 11.151076 -14.377785 -1.376109 86.143937 46.228807 46.461355 0.000000 0.000000 0.000000 
0.016145 0.910176 -0.060673 2.035018 7.470110 9.287860 5.513320 -1.860665 -26.786425 -7.854921 1.086255 29.045764 3.617662 7.937968 0.425189 0.000000 0.000000 0.000000 -9.283481 0.127931 -29.102586 12.656270 -4.960725 31.526185 -9.545893 -22.572225 5.842792 0.000000 0.000000 0.000000 -0.264736 -0.502751 11.378296 2.424489 0.269001 -25.959418 -1.615975 0.636213 15.520066 3.890742 -3.103034 -1.034297 0.000000 0.000000 0.000000 0.177289 49.391022 -18.260576 -0.914826 8.447439 0.236672 -43.935030 -57.620629 25.500023 0.000000 0.000000 0.000000 -12.728995 -55.349237 -14.291514 11.274839 -14.047136 -1.358003 88.537179 34.346177 36.465074 0.000000 0.000000 0.000000 
0.019801 0.909402 -0.064605 2.327838 7.467680 9.663448 5.666549 -1.891015 -27.468803 -9.002730 1.501796 29.779764 4.228806 9.390261 0.948292 0.000000 0.000000 0.000000 -10.013068 -0.075430 -29.960724 13.004176 -5.213536 32.270749 -9.527761 -22.583336 5.482058 0.000000 0.000000 0.000000 -0.159637 -0.516909 11.373624 2.847793 0.147917 -25.136926 -1.925481 1.017336 14.184334 2.775909 -1.983603 -1.777198 0.000000 0.000000 0.000000 -0.007804 49.846647 -18.381630 0.123528 6.523044 0.336548 -50.235382 -54.967874 27.721406 0.000000 0.000000 0.000000 -15.138924 -54.464763 -12.558000 11.945005 -15.308681 -1.492645 96.420008 26.287639 32.269935 0.000000 0.000000 0.000000 
0.023392 0.908407 -0.069148 2.817198 7.562524 10.657952 5.680194 -2.081756 -29.554548 -9.798813 1.819566 31.936353 4.093913 9.141604 0.915169 0.000000 0.000000 0.000000 -10.773713 -0.352555 -31.794940 13.208144 -5.554613 33.902343 -9.576175 -22.789383 4.685984 0.000000 0.000000 0.000000 0.030088 -0.577631 11.956128 2.454858 0.278805 -26.496518 -2.085083 0.507563 13.962399 2.526420 -1.711713 -2.258370 0.000000 0.000000 0.000000 1.286020 50.595581 -17.882453 -0.854294 6.199353 0.161090 -62.435300 -54.521064 34.990094 0.000000 0.000000 0.000000 -14.899952 -54.516600 -12.608230 12.732356 -15.612227 -1.682506 102.475576 22.406241 30.356079 0.000000 0.000000 0.000000 
0.026476 0.905518 -0.073934 2.807544 7.697267 10.965786 5.662190 -2.202798 -30.741339 -10.331284 2.028069 32.874949 4.413186 9.825153 0.931515 0.000000 0.000000 0.000000 -11.505674 -0.639309 -33.136168 13.967447 -6.065842 34.828863 -9.406823 -22.316822 5.476180 0.000000 0.000000 0.000000 0.365201 -0.598792 11.459718 2.765510 0.155055 -24.617466 -2.376352 0.276664 11.980586 2.243002 -1.301393 -3.394550 0.000000 0.000000 0.000000 0.321533 50.896407 -18.337811 -2.282471 5.593226 -0.096900 -76.628380 -58.026339 47.866962 0.000000 0.000000 0.000000 -14.000873 -54.704295 -12.873028 13.515096 -16.041913 -1.864571 106.139742 21.804726 31.352695 0.000000 0.000000 0.000000 
0.028596 0.902066 -0.078665 2.755678 7.579631 11.221645 5.600072 -2.305106 -31.818391 -10.349190 2.087231 34.406479 4.237750 9.253216 0.242485 0.000000 0.000000 0.000000 -12.226272 -0.902918 -34.291260 14.614526 -6.589259 36.304775 -8.800703 -21.115039 4.935603 0.000000 0.000000 0.000000 0.704198 -0.663084 11.715185 2.433561 0.220649 -24.341738 -2.095257 -0.319062 10.980630 2.031589 -0.981026 -4.720734 0.000000 0.000000 0.000000 -1.507731 50.901928 -19.344727 -5.227284 4.218093 -0.573116 -97.917774 -59.863988 68.218807 0.000000 0.000000 0.000000 -11.983636 -54.047764 -13.620482 14.926393 -14.836393 -2.169427 109.600708 22.477433 33.793191 0.000000 0.000000 0.000000 
0.029697 0.897409 -0.083089 2.382164 7.357895 10.887326 6.017385 -2.258456 -32.707417 -10.267373 2.134476 36.185635 4.194628 9.164493 0.252607 0.000000 0.000000 0.000000 -12.403667 -0.983057 -35.180166 14.789652 -6.846608 37.682314 -8.765766 -20.985347 5.617296 0.000000 0.000000 0.000000 0.920737 -0.671962 11.413847 2.561937 0.106502 -22.077395 -2.192751 -0.428846 8.593452 1.785485 -0.741402 -5.140140 0.000000 0.000000 0.000000 -2.894331 48.882117 -19.073544 -9.191524 2.844379 -1.122447 -116.705572 -59.009990 87.148647 0.000000 0.000000 0.000000 -8.673240 -51.066124 -14.281555 16.692902 -14.581932 -2.561726 114.571494 25.229439 41.043367 0.000000 0.000000 0.000000 
0.030171 0.893027 -0.087181 1.920359 6.930297 10.477349 6.771898 -2.077915 -33.407988 -10.547590 2.396227 38.368395 4.295141 9.373320 0.298489 0.000000 0.000000 0.000000 -11.968236 -0.815669 -35.729552 14.459114 -6.799427 39.018582 -9.175792 -21.725546 6.958230 0.000000 0.000000 0.000000 1.204602 -0.696551 11.250708 2.419533 0.074737 -20.562581 -2.126130 -0.770023 6.839195 2.374808 -1.206277 -5.124342 0.000000 0.000000 0.000000 -4.701724 46.482821 -18.952008 -13.306798 0.166312 -1.505065 -129.205340 -55.606812 99.073233 0.000000 0.000000 0.000000 -5.772824 -47.093509 -14.293698 18.964885 -12.797154 -2.934969 118.652686 27.686762 47.849431 0.000000 0.000000 0.000000 
0.030253 0.888662 -0.091082 1.461637 6.532736 9.792805 7.426868 -1.898695 -33.976800 -10.796135 2.655075 40.374449 4.554858 9.811809 0.016790 0.000000 0.000000 0.000000 -11.591854 -0.627513 -35.492015 14.362854 -6.737489 39.507533 -9.822469 -22.839811 8.624248 0.000000 0.000000 0.000000 1.235345 -0.689730 11.172125 2.370369 -0.023404 -18.136943 -1.851924 -1.211613 4.591433 1.929781 -0.972355 -4.504031 0.000000 0.000000 0.000000 -4.740767 43.596646 -17.574680 -17.243856 -1.280348 -1.785849 -135.073624 -51.723176 103.080724 0.000000 0.000000 0.000000 -4.531796 -43.061896 -13.289824 21.279631 -11.122470 -3.219405 122.203888 31.111432 56.370321 0.000000 0.000000 0.000000 
0.030221 0.886693 -0.094773 0.910906 5.500626 9.633928 8.544777 -1.525393 -34.804422 -11.229190 3.150721 41.771594 4.741827 10.056117 -0.446023 0.000000 0.000000 0.000000 -10.906953 -0.267201 -35.892412 13.732404 -6.286278 40.192066 -9.535794 -22.312630 9.496547 0.000000 0.000000 0.000000 1.067656 -0.652441 11.076839 2.932287 -0.225863 -17.877365 -1.642442 -1.335851 4.338868 2.324649 -1.235454 -4.992305 0.000000 0.000000 0.000000 -4.005474 41.798344 -16.453496 -19.312516 -1.793972 -1.933206 -137.527768 -49.326909 104.221694 0.000000 0.000000 0.000000 -4.359050 -39.332618 -12.053612 22.653281 -8.786467 -3.203694 126.521392 33.949375 65.417321 0.000000 0.000000 0.000000 
